<mxfile host="app.diagrams.net" agent="Mozilla/5.0 (Windows NT 10.0; Win64; x64) AppleWebKit/537.36 (KHTML, like Gecko) Chrome/128.0.0.0 Safari/537.36 OPR/114.0.0.0" version="26.0.4">
  <diagram id="kgpKYQtTHZ0yAKxKKP6v" name="Page-1">
    <mxGraphModel dx="1393" dy="834" grid="1" gridSize="10" guides="1" tooltips="1" connect="1" arrows="1" fold="1" page="1" pageScale="1" pageWidth="850" pageHeight="1100" math="0" shadow="0">
      <root>
        <mxCell id="0" />
        <mxCell id="1" parent="0" />
        <mxCell id="3nuBFxr9cyL0pnOWT2aG-1" value="" style="shape=table;childLayout=tableLayout;startSize=40;collapsible=0;recursiveResize=0;expand=0;fillColor=#166CFF;fontStyle=1" parent="1" vertex="1">
          <mxGeometry x="120" y="30" width="680" height="504" as="geometry" />
        </mxCell>
        <mxCell id="3nuBFxr9cyL0pnOWT2aG-3" value="" style="shape=tableRow;horizontal=0;swimlaneHead=0;swimlaneBody=0;top=0;left=0;bottom=0;right=0;fillColor=#166CFF;points=[[0,0.5],[1,0.5]];portConstraint=eastwest;startSize=40;collapsible=0;recursiveResize=0;expand=0;fontStyle=1;" parent="3nuBFxr9cyL0pnOWT2aG-1" vertex="1">
          <mxGeometry y="40" width="680" height="464" as="geometry" />
        </mxCell>
        <mxCell id="3nuBFxr9cyL0pnOWT2aG-4" value="Użytkownicy" style="swimlane;swimlaneHead=0;swimlaneBody=0;connectable=0;fillColor=#166CFF;startSize=40;collapsible=0;recursiveResize=0;expand=0;fontStyle=1;fontColor=#FFFFFF;" parent="3nuBFxr9cyL0pnOWT2aG-3" vertex="1">
          <mxGeometry x="40" width="132" height="464" as="geometry">
            <mxRectangle width="132" height="464" as="alternateBounds" />
          </mxGeometry>
        </mxCell>
        <mxCell id="3nuBFxr9cyL0pnOWT2aG-6" value="Utworzenie prośby o wypożyczenie&amp;nbsp;" style="rounded=1;whiteSpace=wrap;html=1;arcSize=50;" parent="3nuBFxr9cyL0pnOWT2aG-4" vertex="1">
          <mxGeometry x="15" y="60" width="100" height="50" as="geometry" />
        </mxCell>
        <mxCell id="6RZdLacz8SiVOR_UqQPk-17" value="Wypożyczenie książki" style="rounded=0;whiteSpace=wrap;html=1;" vertex="1" parent="3nuBFxr9cyL0pnOWT2aG-4">
          <mxGeometry x="21" y="360" width="90" height="40" as="geometry" />
        </mxCell>
        <mxCell id="3nuBFxr9cyL0pnOWT2aG-8" value="System Zarządzania Wypożyczalnią Książek" style="swimlane;swimlaneHead=0;swimlaneBody=0;connectable=0;fillColor=#166CFF;startSize=40;collapsible=0;recursiveResize=0;expand=0;fontStyle=1;fontColor=#FFFFFF;" parent="3nuBFxr9cyL0pnOWT2aG-3" vertex="1">
          <mxGeometry x="172" width="356" height="464" as="geometry">
            <mxRectangle width="356" height="464" as="alternateBounds" />
          </mxGeometry>
        </mxCell>
        <mxCell id="3nuBFxr9cyL0pnOWT2aG-7" value="Zarejestrowanie prośby" style="rounded=0;whiteSpace=wrap;html=1;" parent="3nuBFxr9cyL0pnOWT2aG-8" vertex="1">
          <mxGeometry x="133" y="65" width="90" height="40" as="geometry" />
        </mxCell>
        <mxCell id="3nuBFxr9cyL0pnOWT2aG-9" value="Otrzymanie statusu książki" style="rounded=0;whiteSpace=wrap;html=1;" parent="3nuBFxr9cyL0pnOWT2aG-8" vertex="1">
          <mxGeometry x="133" y="140" width="90" height="40" as="geometry" />
        </mxCell>
        <mxCell id="6RZdLacz8SiVOR_UqQPk-20" value="Utworzenie wypożyczenia" style="rounded=0;whiteSpace=wrap;html=1;" vertex="1" parent="3nuBFxr9cyL0pnOWT2aG-8">
          <mxGeometry x="18" y="205" width="90" height="40" as="geometry" />
        </mxCell>
        <mxCell id="6RZdLacz8SiVOR_UqQPk-22" style="edgeStyle=orthogonalEdgeStyle;rounded=0;orthogonalLoop=1;jettySize=auto;html=1;entryX=0.5;entryY=0;entryDx=0;entryDy=0;" edge="1" parent="3nuBFxr9cyL0pnOWT2aG-8" source="3nuBFxr9cyL0pnOWT2aG-9" target="6RZdLacz8SiVOR_UqQPk-20">
          <mxGeometry relative="1" as="geometry" />
        </mxCell>
        <mxCell id="6RZdLacz8SiVOR_UqQPk-26" value="Rejestracja wypożyczenia" style="rounded=0;whiteSpace=wrap;html=1;" vertex="1" parent="3nuBFxr9cyL0pnOWT2aG-8">
          <mxGeometry x="133" y="370" width="90" height="40" as="geometry" />
        </mxCell>
        <mxCell id="6RZdLacz8SiVOR_UqQPk-28" value="Przekazanie książki dla&lt;span style=&quot;color: rgba(0, 0, 0, 0); font-family: monospace; font-size: 0px; text-align: start; text-wrap: nowrap;&quot;&gt;%3CmxGraphModel%3E%3Croot%3E%3CmxCell%20id%3D%220%22%2F%3E%3CmxCell%20id%3D%221%22%20parent%3D%220%22%2F%3E%3CmxCell%20id%3D%222%22%20value%3D%22Wypo%C5%BCyczenie%20ksi%C4%85%C5%BCki%22%20style%3D%22rounded%3D0%3BwhiteSpace%3Dwrap%3Bhtml%3D1%3B%22%20vertex%3D%221%22%20parent%3D%221%22%3E%3CmxGeometry%20x%3D%22181%22%20y%3D%22460%22%20width%3D%2290%22%20height%3D%2240%22%20as%3D%22geometry%22%2F%3E%3C%2FmxCell%3E%3C%2Froot%3E%3C%2FmxGraphModel%3E&lt;/span&gt;&amp;nbsp;klienta" style="rounded=0;whiteSpace=wrap;html=1;" vertex="1" parent="3nuBFxr9cyL0pnOWT2aG-8">
          <mxGeometry x="188" y="270" width="90" height="50" as="geometry" />
        </mxCell>
        <mxCell id="3nuBFxr9cyL0pnOWT2aG-11" value="Biblioteka" style="swimlane;swimlaneHead=0;swimlaneBody=0;connectable=0;fillColor=#166CFF;startSize=40;collapsible=0;recursiveResize=0;expand=0;fontStyle=1;fontColor=#FFFFFF;" parent="3nuBFxr9cyL0pnOWT2aG-3" vertex="1">
          <mxGeometry x="528" width="152" height="464" as="geometry">
            <mxRectangle width="152" height="464" as="alternateBounds" />
          </mxGeometry>
        </mxCell>
        <mxCell id="3nuBFxr9cyL0pnOWT2aG-10" value="Weryfikacja dostępności" style="rounded=0;whiteSpace=wrap;html=1;" parent="3nuBFxr9cyL0pnOWT2aG-11" vertex="1">
          <mxGeometry x="31" y="70" width="90" height="40" as="geometry" />
        </mxCell>
        <mxCell id="6RZdLacz8SiVOR_UqQPk-23" value="Wydanie książki do SZWK&lt;span style=&quot;color: rgba(0, 0, 0, 0); font-family: monospace; font-size: 0px; text-align: start; text-wrap: nowrap;&quot;&gt;%3CmxGraphModel%3E%3Croot%3E%3CmxCell%20id%3D%220%22%2F%3E%3CmxCell%20id%3D%221%22%20parent%3D%220%22%2F%3E%3CmxCell%20id%3D%222%22%20value%3D%22Wypo%C5%BCyczenie%20ksi%C4%85%C5%BCki%22%20style%3D%22rounded%3D0%3BwhiteSpace%3Dwrap%3Bhtml%3D1%3B%22%20vertex%3D%221%22%20parent%3D%221%22%3E%3CmxGeometry%20x%3D%22181%22%20y%3D%22460%22%20width%3D%2290%22%20height%3D%2240%22%20as%3D%22geometry%22%2F%3E%3C%2FmxCell%3E%3C%2Froot%3E%3C%2FmxGraphModel%&lt;/span&gt;" style="rounded=0;whiteSpace=wrap;html=1;" vertex="1" parent="3nuBFxr9cyL0pnOWT2aG-11">
          <mxGeometry x="31" y="200" width="90" height="50" as="geometry" />
        </mxCell>
        <mxCell id="3nuBFxr9cyL0pnOWT2aG-14" value="Koniec" style="rounded=1;whiteSpace=wrap;html=1;arcSize=50;" parent="3nuBFxr9cyL0pnOWT2aG-11" vertex="1">
          <mxGeometry x="31" y="400" width="90" height="40" as="geometry" />
        </mxCell>
        <mxCell id="6RZdLacz8SiVOR_UqQPk-34" style="edgeStyle=orthogonalEdgeStyle;rounded=0;orthogonalLoop=1;jettySize=auto;html=1;entryX=0.5;entryY=0;entryDx=0;entryDy=0;" edge="1" parent="3nuBFxr9cyL0pnOWT2aG-11" source="6RZdLacz8SiVOR_UqQPk-33" target="3nuBFxr9cyL0pnOWT2aG-14">
          <mxGeometry relative="1" as="geometry" />
        </mxCell>
        <mxCell id="6RZdLacz8SiVOR_UqQPk-33" value="Archiwizacja danych" style="rounded=0;whiteSpace=wrap;html=1;" vertex="1" parent="3nuBFxr9cyL0pnOWT2aG-11">
          <mxGeometry x="31" y="330" width="90" height="40" as="geometry" />
        </mxCell>
        <mxCell id="3nuBFxr9cyL0pnOWT2aG-5" style="edgeStyle=orthogonalEdgeStyle;rounded=0;orthogonalLoop=1;jettySize=auto;html=1;" parent="3nuBFxr9cyL0pnOWT2aG-3" source="3nuBFxr9cyL0pnOWT2aG-6" target="3nuBFxr9cyL0pnOWT2aG-7" edge="1">
          <mxGeometry relative="1" as="geometry" />
        </mxCell>
        <mxCell id="6RZdLacz8SiVOR_UqQPk-18" style="edgeStyle=orthogonalEdgeStyle;rounded=0;orthogonalLoop=1;jettySize=auto;html=1;" edge="1" parent="3nuBFxr9cyL0pnOWT2aG-3" source="3nuBFxr9cyL0pnOWT2aG-7" target="3nuBFxr9cyL0pnOWT2aG-10">
          <mxGeometry relative="1" as="geometry" />
        </mxCell>
        <mxCell id="6RZdLacz8SiVOR_UqQPk-24" style="edgeStyle=orthogonalEdgeStyle;rounded=0;orthogonalLoop=1;jettySize=auto;html=1;entryX=0;entryY=0.5;entryDx=0;entryDy=0;" edge="1" parent="3nuBFxr9cyL0pnOWT2aG-3" source="6RZdLacz8SiVOR_UqQPk-20" target="6RZdLacz8SiVOR_UqQPk-23">
          <mxGeometry relative="1" as="geometry" />
        </mxCell>
        <mxCell id="6RZdLacz8SiVOR_UqQPk-27" style="edgeStyle=orthogonalEdgeStyle;rounded=0;orthogonalLoop=1;jettySize=auto;html=1;entryX=0;entryY=0.5;entryDx=0;entryDy=0;" edge="1" parent="3nuBFxr9cyL0pnOWT2aG-3" source="6RZdLacz8SiVOR_UqQPk-17" target="6RZdLacz8SiVOR_UqQPk-26">
          <mxGeometry relative="1" as="geometry" />
        </mxCell>
        <mxCell id="6RZdLacz8SiVOR_UqQPk-29" style="edgeStyle=orthogonalEdgeStyle;rounded=0;orthogonalLoop=1;jettySize=auto;html=1;entryX=0.5;entryY=0;entryDx=0;entryDy=0;" edge="1" parent="3nuBFxr9cyL0pnOWT2aG-3" source="6RZdLacz8SiVOR_UqQPk-28" target="6RZdLacz8SiVOR_UqQPk-17">
          <mxGeometry relative="1" as="geometry" />
        </mxCell>
        <mxCell id="6RZdLacz8SiVOR_UqQPk-31" style="edgeStyle=orthogonalEdgeStyle;rounded=0;orthogonalLoop=1;jettySize=auto;html=1;entryX=1;entryY=0.5;entryDx=0;entryDy=0;" edge="1" parent="3nuBFxr9cyL0pnOWT2aG-3" source="3nuBFxr9cyL0pnOWT2aG-10" target="3nuBFxr9cyL0pnOWT2aG-9">
          <mxGeometry relative="1" as="geometry">
            <Array as="points">
              <mxPoint x="604" y="160" />
            </Array>
          </mxGeometry>
        </mxCell>
        <mxCell id="6RZdLacz8SiVOR_UqQPk-32" style="edgeStyle=orthogonalEdgeStyle;rounded=0;orthogonalLoop=1;jettySize=auto;html=1;entryX=1;entryY=0.5;entryDx=0;entryDy=0;" edge="1" parent="3nuBFxr9cyL0pnOWT2aG-3" source="6RZdLacz8SiVOR_UqQPk-23" target="6RZdLacz8SiVOR_UqQPk-28">
          <mxGeometry relative="1" as="geometry">
            <Array as="points">
              <mxPoint x="604" y="295" />
            </Array>
          </mxGeometry>
        </mxCell>
        <mxCell id="6RZdLacz8SiVOR_UqQPk-37" style="edgeStyle=orthogonalEdgeStyle;rounded=0;orthogonalLoop=1;jettySize=auto;html=1;entryX=0;entryY=0.5;entryDx=0;entryDy=0;" edge="1" parent="3nuBFxr9cyL0pnOWT2aG-3" source="6RZdLacz8SiVOR_UqQPk-26" target="6RZdLacz8SiVOR_UqQPk-33">
          <mxGeometry relative="1" as="geometry" />
        </mxCell>
      </root>
    </mxGraphModel>
  </diagram>
</mxfile>
